<?xml version="1.0" encoding="utf-8"?>
<!-- Generator: Adobe Illustrator 24.1.1, SVG Export Plug-In . SVG Version: 6.00 Build 0)  -->
<svg version="1.1" id="Layer_1" xmlns="http://www.w3.org/2000/svg" xmlns:xlink="http://www.w3.org/1999/xlink" x="0px" y="0px"
	 viewBox="0 0 14173.23 14173.23" style="enable-background:new 0 0 14173.23 14173.23;" xml:space="preserve">
<style type="text/css">
	.st0{fill:#6CC3EB;}
	.st1{fill:none;stroke:#6CC3EB;stroke-width:180.2129;stroke-miterlimit:10;}
</style>
<g>
	<path class="st0" d="M2994.98,785.93c50.61,0,92.05,7,124.16,20.91c32.16,13.95,57,36.09,74.5,66.46
		c17.55,30.41,29.7,69.67,36.56,117.78c6.76,48.1,10.22,105.1,10.22,170.94c0,58.27-1.47,113.33-4.4,165.22
		c-2.93,51.94-7.8,104.49-14.62,157.65s-15.09,108.89-24.83,167.11c-9.74,58.32-20.43,121.56-32.12,189.96
		c-37.04,202.63-81.36,404.51-132.96,605.87c-51.65,201.31-102.78,408.34-153.39,621.05l-108.13,463.45
		c111.01-37.98,215.74-91.19,314.12-159.54c98.34-68.4,194.31-148.14,287.82-239.34c93.51-91.15,185.04-193.08,274.67-305.75
		c89.54-112.67,181.16-231.06,274.67-355.18c146.06-194.97,291.18-396.94,435.35-605.87c144.12-208.92,283.42-422.25,417.85-640.07
		c21.43-35.43,43.85-86.09,67.21-151.93c23.37-65.84,51.13-131.68,83.3-197.53c32.12-65.84,69.63-122.84,112.48-170.94
		c42.81-48.1,94.46-72.18,154.86-72.18c38.93,0,73.5,16.51,103.73,49.38c30.18,32.92,55.01,74.07,74.5,123.45
		c19.49,49.38,34.06,103.87,43.85,163.33c9.74,59.55,14.62,114.61,14.62,165.27c0,43.09-2.93,79.75-8.75,110.11
		c-109.12,212.76-226,417.28-350.68,613.48c-124.68,196.3-254.71,385.54-390.08,567.89c-135.42,182.34-274.67,360.29-417.85,533.69
		c-143.18,173.5-287.77,343.78-433.88,510.94c200.6,88.64,384.22,203.86,550.81,345.67c166.54,141.85,313.6,313.36,441.22,514.67
		c127.57,201.36,235.22,434.97,322.87,700.85c87.65,265.92,151.93,565.99,192.84,900.26c-11.68,45.6-28.24,89.26-49.67,131.07
		c-21.47,41.77-46.78,78.42-75.96,110.16c-29.23,31.6-62.39,57.56-99.38,77.86c-36.99,20.24-76.96,30.37-119.76,30.37
		c-68.25,0-121.28-18.4-159.26-55.06c-37.98-36.75-67.21-82.96-87.69-138.64c-20.43-55.77-35.05-117.78-43.8-186.13
		c-8.75-68.4-17.08-132.96-24.83-193.74l-11.68-94.98c-21.47-169.62-60.92-328.55-118.35-476.69
		c-57.52-148.14-124.68-280.44-201.64-396.99c-76.96-116.45-160.68-215.83-251.31-298.18c-90.58-82.25-179.69-144.93-267.34-188.02
		l-84.71-41.77c-35.1-17.69-74.55-36.71-118.35-57c-43.85-20.24-88.69-39.21-134.43-57c-45.79-17.64-90.11-32.26-132.96-43.66
		c-42.85-11.4-80.84-17.08-113.95-17.08c-19.49,0-57.47,14.57-113.95,43.66c-56.52,29.14-118.35,61.44-185.56,96.87
		c-67.21,35.48-132.96,69.67-197.24,102.55c-64.28,32.97-112.05,54.49-143.18,64.56l-73.03,387.48
		c-21.47,113.95-36.56,223.49-45.31,328.55c-8.75,105.15-15.09,204.53-19.01,298.23c-1.94,78.52-4.35,163.33-7.28,254.48
		c-2.93,91.19-13.15,176.05-30.7,254.52c-17.5,78.52-47.25,144.31-89.11,197.53c-41.91,53.17-103.73,79.75-185.56,79.75
		c-50.66,0-91.05-18.97-121.23-56.95c-30.22-37.98-53.12-85.47-68.68-142.47c-15.61-57-25.35-117.73-29.23-182.34
		c-3.93-64.56-5.82-123.45-5.82-176.62c0-65.84,3.36-139.91,10.22-222.22c6.81-82.25,15.56-166.5,26.3-252.58
		c10.69-86.09,22.89-171.56,36.52-256.41c13.62-84.81,27.24-162.71,40.91-233.62l680.84-3563.08
		C2755.36,877.12,2846.88,785.93,2994.98,785.93z"/>
</g>
<g>
	<path class="st0" d="M8117.42,11823.54c44.53-229.08,102.73-468.32,174.63-717.6c71.89-249.18,147.36-503.49,226.31-762.82
		c78.95-259.33,156.84-523.05,233.89-791.26c76.84-268.1,142.73-535.56,197.36-802.48c14.1-65.42,26.31-125.82,36.42-181.3
		c10.1-55.37,20.21-114.49,30.42-177.45c24.32-65.42,57.16-115.77,98.73-151.05c41.47-35.28,86.52-52.91,135.15-52.91
		c44.42,0,86.52,8.87,126,26.4c39.47,17.64,73.89,45.97,103.26,84.98c29.37,39.13,52.63,88.73,69.89,149.23
		c17.16,60.4,25.79,132.13,25.79,215.18c0,90.65-11.16,193.91-33.37,309.68c-79.05,251.85-159.05,498.57-239.99,740.27
		c-81.05,241.7-159.47,478.37-235.36,710.01c-75.89,231.65-146.31,460.73-211.05,687.35c-64.84,226.52-120.52,450.68-167.05,672.17
		c-4.11,17.64-12.21,56.12-24.32,115.24c-12.21,59.11-24.84,130.31-38,213.37c-13.16,83.06-24.84,171.79-34.95,266.28
		c-10.1,94.39-15.16,185.68-15.16,273.76c0,60.4,3.05,117.69,9.16,171.78c6,54.2,16.11,101.45,30.32,141.64
		c14.21,40.3,33.47,71.73,57.68,94.39c24.31,22.66,54.74,33.99,91.16,33.99c76.95,0,171.05-49.6,282.41-149.12
		c111.37-99.42,231.89-234.75,361.46-406c129.58-171.14,262.73-371.36,399.36-600.44c136.73-229.08,269.78-474.63,399.36-736.42
		c129.58-261.9,250.1-531.28,361.46-808.25c111.37-276.86,205.47-550.09,282.41-819.48c18.32-47.78,40.53-78.68,66.84-92.57
		c26.32-13.79,60.74-20.74,103.26-20.74c78.95,0,145.26,29.61,198.94,88.73c53.68,59.22,80.52,135.33,80.52,228.44
		c0,22.66-2.11,44.15-6.11,64.25c-4.11,20.2-10.1,44.04-18.21,71.73l-42.53,154.89c-32.42,118.34-63.26,227.26-92.63,326.68
		c-29.37,99.41-53.16,193.27-71.37,281.35c-26.31,125.93-47.58,241.05-63.79,345.49c-16.21,104.55-28.84,202.79-38,294.61
		c-9.05,91.93-15.16,181.94-18.21,270.02c-3.05,88.19-4.53,177.56-4.53,268.1c0,35.38,2.53,86.91,7.58,154.89
		c5.05,67.99,12.63,142.92,22.74,224.7c10.11,81.88,23.79,164.94,41.05,249.29c17.16,84.34,37.47,161.74,60.74,232.18
		c23.26,70.55,50.63,127.85,82,171.89c31.37,44.04,67.26,66.06,107.79,66.06c62.73,0,129.15-32.07,198.94-96.32
		c69.89-64.14,140.21-152.22,211.15-264.36c70.84-111.92,142.21-243.51,214.1-394.67c71.79-151.05,141.68-313.42,209.57-487.13
		c67.79-173.71,132.52-353.72,194.31-540.05c61.79-186.32,118.52-370.72,170.1-553.3c51.68-182.47,97.16-358.75,136.63-528.72
		c39.58-169.97,71.47-325.4,95.68-466.39c22.32-133.41,41.47-263.08,57.79-389c16.1-125.82,32.32-251.74,48.53-377.67
		c16.21-125.82,33.89-252.39,53.16-379.49c19.26-127.1,43.05-257.41,71.37-390.92c10.1-47.78,25.37-96.85,45.58-147.3
		c20.21-50.35,45.05-96.31,74.42-137.79c29.37-41.58,61.26-75.58,95.68-101.98c34.42-26.4,69.79-39.66,106.31-39.66
		c91.05,0,152.84,30.89,185.26,92.47c32.32,61.79,48.53,164.3,48.53,307.87c0,105.72-7.58,229.08-22.74,370.08
		s-34.42,288.94-57.68,443.73c-23.37,154.89-49.16,311.61-77.47,470.24c-28.42,158.53-56.73,308.4-85.05,449.4
		c-56.74,287.02-131.58,584.73-224.73,893.13c-93.16,308.51-196.94,609.32-311.25,902.64
		c-114.42,293.33-235.99,569.66-364.52,828.88c-128.63,259.44-257.68,482.21-387.25,668.54c-44.53,65.42-97.16,132.13-157.89,200.11
		c-60.74,67.99-126.1,129.77-195.89,185.04c-69.89,55.37-140.73,101.34-212.63,137.9c-71.89,36.45-141.26,54.73-207.99,54.73
		c-139.79,0-256.73-50.99-350.83-152.97c-94.1-101.98-171.15-237.85-230.83-407.81s-105.26-363.77-136.63-581.63
		c-31.47-217.75-54.21-442.45-68.31-674.1c-113.47,208.98-217.26,395.31-311.36,558.97s-189.78,314.71-287.04,453.14
		c-72.84,103.26-154.84,214.65-245.99,334.27c-91.05,119.62-187.78,230.36-289.99,332.34
		c-102.31,101.87-207.05,186.22-314.41,253.03c-107.26,66.6-212.52,100.06-315.78,100.06c-119.58,0-219.26-25.87-299.25-77.39
		c-80-51.63-144.21-122.83-192.84-213.37c-48.52-90.65-83.47-197.65-104.73-321.01c-21.26-123.36-31.89-256.88-31.89-400.33
		c0-166.23,11.05-337.37,33.37-513.64C8054.68,12176.08,8083,11999.81,8117.42,11823.54z"/>
</g>
<path class="st0" d="M7318.95,97.09v6844.95h6844.94V97.09H7318.95z M8676.7,5715.09
	c-2123.52-1963.97,1208.38-5683.6,3627.7-4683.33c52.22,23.43,100.96,43.52,149.71,66.95
	c-1086.23,351.51-1827.79,1305.58-1876.52,2423.69c-41.78,1041.1-776.38,1911.5-1827.77,2172.61L8676.7,5715.09z M12440.19,5112.52
	c-1021.18,994.15-2380.63,1329.58-3394.46,840.25c1086.23-354.85,1827.79-1305.58,1876.52-2420.33
	c39.82-1065.4,820.46-1963.89,1900.89-2192.7c27.84,20.09,52.22,46.87,76.59,66.95
	C13831.77,2286.89,13625.5,3940.13,12440.19,5112.52z"/>
<rect x="383" y="7033.05" class="st1" width="6844.95" height="6844.95"/>
<g>
	<g>
		<path class="st0" d="M1740.76,12651.05c-2123.52-1963.96,1208.38-5683.6,3627.7-4683.34c52.23,23.44,100.96,43.53,149.71,66.95
			c-1086.23,351.5-1827.79,1305.58-1876.52,2423.7c-41.78,1041.1-776.37,1911.5-1827.77,2172.62L1740.76,12651.05z"/>
		<path class="st0" d="M5504.25,12048.48c-1021.18,994.15-2380.63,1329.58-3394.46,840.25
			c1086.23-354.85,1827.79-1305.58,1876.52-2420.33C4026.13,9403,4806.77,8504.51,5887.2,8275.7
			c27.84,20.09,52.23,46.87,76.59,66.95C6895.82,9222.85,6689.56,10876.09,5504.25,12048.48z"/>
	</g>
</g>
</svg>
