<?xml version="1.0" encoding="utf-8"?>
<!-- Generator: Adobe Illustrator 24.1.1, SVG Export Plug-In . SVG Version: 6.00 Build 0)  -->
<svg version="1.1" id="Layer_1" xmlns="http://www.w3.org/2000/svg" xmlns:xlink="http://www.w3.org/1999/xlink" x="0px" y="0px"
	 viewBox="0 0 512 512" style="enable-background:new 0 0 512 512;" xml:space="preserve">
<style type="text/css">
	.st0{fill:#6DC4EC;}
</style>
<path class="st0" d="M328.8,419.4h143.1l-13-313h-69.3v58.1h-30v-58.1H258.1v58.1h-30v-58.1h-69.3l-3.8,91.5h173.8V419.4z"/>
<path class="st0" d="M298.8,512V227.9h-60.6v54.7c0,38.9-31.7,70.6-70.6,70.6S97,321.5,97,282.6v-54.7H36.3v284L298.8,512z"/>
<path class="st0" d="M167.5,323.3c22.4,0,40.6-18.2,40.6-40.6V228h-81.2v54.7C126.9,305,145.1,323.3,167.5,323.3z"/>
<path class="st0" d="M328.8,512h146.9l-2.6-62.6H328.8V512z"/>
<path class="st0" d="M258.1,80.7c0-28,22.8-50.7,50.7-50.7s50.7,22.8,50.7,50.7v25.7h30V80.7c0-44.5-36.2-80.7-80.7-80.7
	s-80.7,36.2-80.7,80.7v25.7h30L258.1,80.7z"/>
</svg>
