<?xml version="1.0" encoding="utf-8"?>
<!-- Generator: Adobe Illustrator 22.1.0, SVG Export Plug-In . SVG Version: 6.00 Build 0)  -->
<svg version="1.1" id="Layer_1" xmlns="http://www.w3.org/2000/svg" xmlns:xlink="http://www.w3.org/1999/xlink" x="0px" y="0px"
	 viewBox="0 0 512 512" style="enable-background:new 0 0 512 512;" xml:space="preserve">
<style type="text/css">
	.st0{fill:#FFFFFF;}
</style>
<path class="st0" d="M475.7,512l-16.9-405.6h-69.3V80.7c0-44.5-36.2-80.7-80.7-80.7s-80.7,36.2-80.7,80.7v25.7h-69.3l-4.7,111.5
	H36.3v294L475.7,512z M308.8,482v-32.6h134.3l1.4,32.6H308.8z M258.1,80.7c0-28,22.8-50.7,50.7-50.7s50.7,22.8,50.7,50.7v25.7H258.1
	L258.1,80.7z M187.5,136.4h40.5v28.1h30v-28.1h101.5v28.1h30v-28.1H430l11.8,283h-133V217.9H184.1L187.5,136.4z M131.9,247.9h81.2
	v34.7c0,22.4-18.2,40.6-40.6,40.6c-22.4,0-40.6-18.2-40.6-40.6V247.9z M278.8,481.9H66.3v-234h35.6v34.7c0,38.9,31.7,70.6,70.6,70.6
	c38.9,0,70.6-31.7,70.6-70.6v-34.7h35.6V481.9z"/>
</svg>
